<svg xmlns="http://www.w3.org/2000/svg" viewBox="0 0 512 512"><defs><style>.cls-1{fill:#776aca;}.cls-2{fill:#fff;}</style></defs><title>Favicon</title><g id="Слой_2" data-name="Слой 2"><g id="Слой_4" data-name="Слой 4"><rect class="cls-1" width="512" height="512"/><path class="cls-2" d="M307.4,466.82h-1.25c-6.07,0-14.92-.69-20.2-2,10.5-56.55-1.26-91.94-16.42-114-21.27-30.95-57.19-45.06-99.73-28.91C219,317,245.64,344.46,256,361.62c13.46,22.27,19.73,54.58,7.93,96.55-17.66-7.36-32.11-18.59-45.09-29.65-8.09-7.3-16.65-16.46-25.73-26.18-13.93-14.92-28.34-30.35-42.68-40.65a235.49,235.49,0,0,0-54.18-29.57c26.6-26.82,61.19-42.18,95.17-42.18a115.28,115.28,0,0,1,28.18,3.5C287.6,310.67,326.84,388.34,307.4,466.82Z"/><path class="cls-2" d="M337.81,235.64c16,12.13,70.48,50.91,77.26,55.75l-37.39,104-13.34-9.5C367.35,378,398,297.5,398,297.5l-57-43.78,38.08,49.35c-5.36,15.81-25.6,64-29.17,72.49l-21.2-15.14c.33-5.55,2.76-47.41,4.08-69.55l0-.49-.34-.33c-.29-.34-30-31.69-46.8-48.77a61.38,61.38,0,0,0,5.35-11.5c5.22-15.28,2.12-30.22-2-44.08-4.58-15.28-14.34-47.77-21.72-72.27,53.94-5.86,101.37,22.83,129.36,63.79-5.92-18.31-20.39-45.21-48-63.66-21.56-14.43-50.59-24.31-87.09-19l-3.3-10.93a136.29,136.29,0,0,1,123.11,42.94,136.65,136.65,0,0,1,30.41,122.66L339.3,209.69l-.31,4.06,0,0-1.63,21.57Z"/><path class="cls-2" d="M216.09,105.76a8.19,8.19,0,0,1-6,8.41A103.78,103.78,0,0,0,185.7,124l.55-38.85A26.89,26.89,0,0,1,200.39,61.9l12.4-6.69Z"/><path class="cls-2" d="M264.61,160.3a60.34,60.34,0,0,0-6.11-3.23,58.88,58.88,0,0,0-24.57-5.4,59.64,59.64,0,0,0-45.31,21,61.07,61.07,0,0,0-3.73,4.88l.52-34.27c11.5-8.63,32.53-14,43.23-15.38a6.31,6.31,0,0,0,5.31-7.81l-17.1-67,14.56-7.85Z"/><path class="cls-2" d="M248.33,168.37a44.25,44.25,0,1,0,27.54,56.19A44.34,44.34,0,0,0,248.33,168.37Zm6.89,49.14A22.47,22.47,0,1,1,241.28,189,22.45,22.45,0,0,1,255.22,217.51Z"/></g></g></svg>