<svg width="14" height="14" viewBox="0 0 14 14" fill="none" xmlns="http://www.w3.org/2000/svg">
<path fill-rule="evenodd" clip-rule="evenodd" d="M6.99967 0.333333C3.31967 0.333333 0.333008 3.32 0.333008 7C0.333008 10.68 3.31967 13.6667 6.99967 13.6667C10.6797 13.6667 13.6663 10.68 13.6663 7C13.6663 3.32 10.6797 0.333333 6.99967 0.333333ZM6.99967 7.66667C6.63301 7.66667 6.33301 7.36667 6.33301 7V4.33333C6.33301 3.96667 6.63301 3.66667 6.99967 3.66667C7.36634 3.66667 7.66634 3.96667 7.66634 4.33333V7C7.66634 7.36667 7.36634 7.66667 6.99967 7.66667ZM7.66634 10.3333H6.33301V9H7.66634V10.3333Z" fill="#E92C2C"/>
</svg>
