<svg width="14" height="11" viewBox="0 0 14 11" fill="none" xmlns="http://www.w3.org/2000/svg">
<path d="M7.94476 6.44297C7.69471 6.69302 7.35558 6.8335 7.00195 6.8335C6.64833 6.8335 6.30919 6.69302 6.05914 6.44297C5.8091 6.19292 5.66862 5.85378 5.66862 5.50016C5.66862 5.14654 5.8091 4.8074 6.05914 4.55735C6.30919 4.30731 6.64833 4.16683 7.00195 4.16683C7.35558 4.16683 7.69471 4.30731 7.94476 4.55735C8.19481 4.8074 8.33529 5.14654 8.33529 5.50016C8.33529 5.85378 8.19481 6.19292 7.94476 6.44297Z" fill="#252C32"/>
<path fill-rule="evenodd" clip-rule="evenodd" d="M7.00196 0.833496C4.01662 0.833496 1.48996 2.7955 0.640625 5.50016C1.48996 8.20483 4.01662 10.1668 7.00196 10.1668C9.98729 10.1668 12.514 8.20483 13.3633 5.50016C12.514 2.7955 9.98729 0.833496 7.00196 0.833496ZM8.88758 7.38578C9.38767 6.88568 9.66862 6.20741 9.66862 5.50016C9.66862 4.79292 9.38767 4.11464 8.88758 3.61454C8.38748 3.11445 7.7092 2.8335 7.00196 2.8335C6.29471 2.8335 5.61644 3.11445 5.11634 3.61454C4.61624 4.11464 4.33529 4.79292 4.33529 5.50016C4.33529 6.20741 4.61624 6.88568 5.11634 7.38578C5.61644 7.88588 6.29471 8.16683 7.00196 8.16683C7.7092 8.16683 8.38748 7.88588 8.88758 7.38578Z" fill="#252C32"/>
</svg>
