<svg width="51" height="50" viewBox="0 0 51 50" fill="none" xmlns="http://www.w3.org/2000/svg">
<path d="M4.92926 50H0.333008V6.61C0.333339 4.85702 1.02985 3.17593 2.2694 1.93639C3.50894 0.696846 5.19003 0.000331407 6.94301 0L47.1555 0C44.5393 3.75 41.503 7.875 40.438 9.14375C38.2818 7.34875 35.4893 5.92875 32.238 5.08375L31.5155 4.89625C22.0505 2.43625 13.7655 6.14625 11.7143 14.0212L11.563 14.6C10.2868 19.5125 12.053 24.29 15.9505 27.6938L14.053 34.9875C9.03301 35.6125 4.98926 38.1125 3.90051 42.2975L3.70801 43.02C3.07551 45.47 3.55426 47.8488 4.92926 50ZM23.5118 41.9188L22.5005 41.6562C16.5768 40.1162 11.933 41.0687 11.1255 44.175L11.013 44.6087C10.513 46.5337 11.708 48.4525 14.083 50H32.208L32.2918 49.6775C33.1005 46.57 29.4368 43.4588 23.5118 41.9188ZM44.3205 14.0863C45.563 16.7225 45.8805 19.6587 45.0918 22.6925L44.9405 23.2712C42.9318 31.0012 34.5655 34.6887 25.1768 32.2487L24.888 32.1725C23.8173 31.9104 22.777 31.5367 21.7843 31.0575L20.6393 35.465C21.8893 35.715 23.2055 35.9775 24.5055 36.315L25.1555 36.485C34.173 38.8288 40.093 44.0713 39.6855 50H43.723C45.4761 50 47.1574 49.3036 48.397 48.064C49.6366 46.8244 50.333 45.1431 50.333 43.39V8.4375L44.3205 14.0863ZM30.2455 10.9613C24.8993 9.57125 20.0655 11.555 18.9193 15.9613L18.7505 16.6112C17.6255 20.9463 20.8755 25.0325 26.083 26.3838L26.6605 26.535C31.8618 27.8862 36.7155 25.8312 37.823 21.5688L37.993 20.9188C39.118 16.5838 35.8805 12.4263 30.6068 11.055L30.2455 10.9613Z" fill="white"/>
</svg>
