<svg width="23" height="22" viewBox="0 0 23 22" fill="none" xmlns="http://www.w3.org/2000/svg">
<g clip-path="url(#clip0_326_714)">
<path d="M19.124 4.00579C17.6976 3.3511 16.1924 2.88422 14.6459 2.61687C14.6319 2.61426 14.6174 2.61614 14.6045 2.62225C14.5915 2.62836 14.5809 2.63838 14.574 2.6509C14.3806 2.99487 14.1664 3.44355 14.0164 3.79623C12.3254 3.54306 10.6431 3.54306 8.98683 3.79623C8.83678 3.43572 8.61481 2.99487 8.42055 2.6509C8.41337 2.63865 8.40266 2.62884 8.38981 2.62277C8.37697 2.6167 8.3626 2.61464 8.34857 2.61687C6.77729 2.88749 5.27364 3.36152 3.87054 4.00579C3.85833 4.01097 3.84803 4.01981 3.84107 4.0311C0.988974 8.2921 0.20763 12.4484 0.590911 16.5531C0.59263 16.5732 0.603931 16.5924 0.619528 16.6046C2.50126 17.9865 4.32408 18.8255 6.113 19.3816C6.1269 19.3857 6.14175 19.3855 6.15555 19.381C6.16934 19.3765 6.18142 19.3678 6.19017 19.3562C6.61332 18.7784 6.99055 18.169 7.31397 17.5282C7.33305 17.4907 7.31483 17.4462 7.27582 17.4313C6.67748 17.2044 6.10775 16.9276 5.55969 16.6134C5.51633 16.5881 5.51285 16.5261 5.55277 16.4964C5.66842 16.41 5.78206 16.3209 5.8936 16.2292C5.90338 16.2212 5.91522 16.216 5.92778 16.2143C5.94035 16.2126 5.95314 16.2144 5.96471 16.2196C9.56515 17.8635 13.4631 17.8635 17.021 16.2196C17.0326 16.2141 17.0455 16.212 17.0582 16.2135C17.071 16.2151 17.083 16.2202 17.093 16.2283C17.2046 16.3205 17.3186 16.4098 17.4347 16.4963C17.4745 16.526 17.4719 16.588 17.4286 16.6133C16.8805 16.9337 16.3108 17.2043 15.7116 17.4304C15.7024 17.434 15.694 17.4394 15.687 17.4464C15.6801 17.4534 15.6746 17.4618 15.6711 17.471C15.6676 17.4802 15.6661 17.4901 15.6666 17.4999C15.6672 17.5098 15.6698 17.5194 15.6744 17.5282C16.0047 18.1681 16.382 18.7774 16.7973 19.3553C16.8147 19.3798 16.8459 19.3903 16.8745 19.3815C18.6721 18.8255 20.4949 17.9865 22.3766 16.6046C22.3847 16.5987 22.3915 16.5911 22.3964 16.5824C22.4013 16.5736 22.4043 16.5639 22.4052 16.554C22.864 11.8084 21.6369 7.68624 19.1525 4.03196C19.1464 4.02011 19.1363 4.01082 19.124 4.00579ZM7.85173 14.0537C6.76775 14.0537 5.87456 13.0586 5.87456 11.8364C5.87456 10.6142 6.75039 9.61901 7.85173 9.61901C8.96165 9.61901 9.84621 10.6229 9.82885 11.8364C9.82885 13.0586 8.95297 14.0537 7.85173 14.0537ZM15.1619 14.0537C14.0779 14.0537 13.1847 13.0586 13.1847 11.8364C13.1847 10.6142 14.0606 9.61901 15.1619 9.61901C16.2718 9.61901 17.1563 10.6229 17.139 11.8364C17.139 13.0586 16.2719 14.0537 15.1619 14.0537Z" fill="#776ACA"/>
</g>
<defs>
<clipPath id="clip0_326_714">
<rect width="22" height="22" fill="white" transform="translate(0.5)"/>
</clipPath>
</defs>
</svg>
