<svg width="299" height="680" viewBox="0 0 299 680" fill="none" xmlns="http://www.w3.org/2000/svg">
<path opacity="0.2" d="M298.998 144L-76.0019 144" stroke="#C9C2F9"/>
<path opacity="0.2" d="M298.998 302L-76.0019 302" stroke="#C9C2F9"/>
<path opacity="0.2" d="M298.998 460L-76.0019 460" stroke="#C9C2F9"/>
<path opacity="0.2" d="M298.998 618L-76.0019 618" stroke="#C9C2F9"/>
<path opacity="0.2" d="M116.498 0V680" stroke="#C9C2F9"/>
<path opacity="0.2" d="M274.998 0V680" stroke="#C9C2F9"/>
<g opacity="0.5">
<path d="M-200.8 148.392V144.434H-204.758V143.643H-200.8V139.685H-200.009V143.643H-196.051V144.434H-200.009V148.392H-200.8Z" fill="#C9C2F9"/>
<path d="M-200.8 306.697V302.74H-204.758V301.948H-200.8V297.99H-200.009V301.948H-196.051V302.74H-200.009V306.697H-200.8Z" fill="#C9C2F9"/>
<path d="M-200.8 461.045V465.003H-200.009V461.045H-196.051V460.254H-200.009V456.296H-200.8V460.254H-204.758V461.045H-200.8Z" fill="#C9C2F9"/>
<path d="M-200.8 623.308V619.351H-204.758V618.559H-200.8V614.602H-200.009V618.559H-196.051V619.351H-200.009V623.308H-200.8Z" fill="#C9C2F9"/>
<path d="M-42.4946 144.434V148.392H-41.7031V144.434H-37.7455V143.643H-41.7031V139.685H-42.4946V143.643H-46.4523V144.434H-42.4946Z" fill="#C9C2F9"/>
<path d="M-41.378 300.425V304.383H-40.5865V300.425H-36.6289V299.633H-40.5865V295.676H-41.378V299.633H-45.3356V300.425H-41.378Z" fill="#C9C2F9"/>
<path d="M-42.3709 464.322V460.365H-46.3286V459.573H-42.3709V455.616H-41.5794V459.573H-37.6218V460.365H-41.5794V464.322H-42.3709Z" fill="#C9C2F9"/>
<path d="M-42.3486 618.365V622.323H-41.5571V618.365H-37.5995V617.574H-41.5571V613.616H-42.3486V617.574H-46.3063V618.365H-42.3486Z" fill="#C9C2F9"/>
<path d="M116.583 148.392V144.434H112.626V143.643H116.583V139.685H117.375V143.643H121.332V144.434H117.375V148.392H116.583Z" fill="#C9C2F9"/>
<path d="M116.13 306.356V302.398H112.172V301.607H116.13V297.649H116.921V301.607H120.879V302.398H116.921V306.356H116.13Z" fill="#C9C2F9"/>
<path d="M116.311 460.442V464.399H117.102V460.442H121.06V459.65H117.102V455.692H116.311V459.65H112.353V460.442H116.311Z" fill="#C9C2F9"/>
<path d="M116.095 622.367V618.41H112.138V617.618H116.095V613.661H116.887V617.618H120.845V618.41H116.887V622.367H116.095Z" fill="#C9C2F9"/>
<path d="M274.576 144.434V148.392H275.368V144.434H279.325V143.643H275.368V139.685H274.576V143.643H270.618V144.434H274.576Z" fill="#C9C2F9"/>
<path d="M274.617 302.407V306.365H275.409V302.407H279.366V301.616H275.409V297.658H274.617V301.616H270.66V302.407H274.617Z" fill="#C9C2F9"/>
<path d="M274.572 464.404V460.446H270.615V459.654H274.572V455.697H275.364V459.654H279.322V460.446H275.364V464.404H274.572Z" fill="#C9C2F9"/>
<path d="M274.581 618.421V622.379H275.373V618.421H279.33V617.63H275.373V613.672H274.581V617.63H270.624V618.421H274.581Z" fill="#C9C2F9"/>
<path d="M432.422 148.392V144.434H428.464V143.643H432.422V139.685H433.214V143.643H437.171V144.434H433.214V148.392H432.422Z" fill="#C9C2F9"/>
<path d="M432.422 306.697V302.74H428.464V301.948H432.422V297.99H433.214V301.948H437.171V302.74H433.214V306.697H432.422Z" fill="#C9C2F9"/>
<path d="M432.422 461.045V465.003H433.214V461.045H437.171V460.254H433.214V456.296H432.422V460.254H428.464V461.045H432.422Z" fill="#C9C2F9"/>
<path d="M432.422 623.308V619.351H428.464V618.559H432.422V614.602H433.214V618.559H437.171V619.351H433.214V623.308H432.422Z" fill="#C9C2F9"/>
<path d="M590.728 144.434V148.392H591.519V144.434H595.477V143.643H591.519V139.685H590.728V143.643H586.77V144.434H590.728Z" fill="#C9C2F9"/>
<path d="M590.728 302.74V306.697H591.519V302.74H595.477V301.948H591.519V297.99H590.728V301.948H586.77V302.74H590.728Z" fill="#C9C2F9"/>
<path d="M590.728 465.003V461.045H586.77V460.254H590.728V456.296H591.519V460.254H595.477V461.045H591.519V465.003H590.728Z" fill="#C9C2F9"/>
<path d="M590.728 619.351V623.308H591.519V619.351H595.477V618.559H591.519V614.602H590.728V618.559H586.77V619.351H590.728Z" fill="#C9C2F9"/>
</g>
</svg>
