<svg width="30" height="29" viewBox="0 0 30 29" fill="none" xmlns="http://www.w3.org/2000/svg">
<path d="M17.9706 6.88659L23.4839 4.30803L21.8589 10.0723L21.7197 10.5661L22.2169 10.6926L28.109 12.1918L23.0988 15.5763L22.6703 15.8657L22.974 16.2843L26.5042 21.1487L20.4352 20.5779L19.9307 20.5305L19.89 21.0355L19.4081 27.0084L15.1217 22.7301L14.7685 22.3776L14.4153 22.7301L10.1289 27.0084L9.64703 21.0355L9.60629 20.5305L9.10184 20.5779L3.03282 21.1487L6.56305 16.2843L6.86679 15.8657L6.43826 15.5763L1.428 12.1918L7.32018 10.6926L7.81732 10.5661L7.67813 10.0723L6.05312 4.30803L11.5664 6.88659L12.0204 7.09893L12.2317 6.64442L14.7685 1.18629L17.3054 6.64442L17.5166 7.09893L17.9706 6.88659Z" stroke="white"/>
</svg>
