<svg width="77" height="28" viewBox="0 0 77 28" fill="none" xmlns="http://www.w3.org/2000/svg">
<path d="M50.0801 21.5534L50.0712 21.647L50.0085 21.653L50.0801 21.5534ZM50.0801 21.5534L49.9931 21.4908L49.9983 21.5457L50.0801 21.5534ZM17.5279 6.85726L22.9599 4.29594L21.3571 10.0278L21.2195 10.5198L21.7144 10.6468L26.3067 11.8247L26.4309 11.8566L26.5552 11.8247L31.1475 10.6468L31.6424 10.5198L31.5048 10.0278L29.902 4.29594L35.334 6.85726L35.7901 7.07235L36.0013 6.61434L38.5 1.19427L40.9987 6.61434L41.2099 7.07235L41.666 6.85726L47.098 4.29594L45.4952 10.0278L45.3576 10.5198L45.8525 10.6468L50.4448 11.8247L50.5691 11.8566L50.6933 11.8247L55.2856 10.6468L55.7805 10.5198L55.6429 10.0278L54.0401 4.29594L59.4721 6.85726L59.9282 7.07235L60.1394 6.61434L62.6381 1.19427L65.1368 6.61434L65.348 7.07235L65.8042 6.85726L71.2361 4.29594L69.6333 10.0278L69.4958 10.5198L69.9906 10.6468L75.8042 12.138L70.8589 15.506L70.4347 15.7949L70.7346 16.2114L74.2185 21.0512L68.2347 20.4839L67.7296 20.436L67.6891 20.9418L67.2143 26.8764L62.9928 22.6285L62.6381 22.2717L62.2835 22.6285L58.062 26.8764L57.5871 20.9418L57.5466 20.436L57.0415 20.4839L51.0577 21.0512L54.5417 16.2114L54.8415 15.7949L54.4173 15.506L50.8505 13.0768L50.5691 12.8851L50.2876 13.0768L46.7208 15.506L46.2966 15.7949L46.5964 16.2114L50.0804 21.0512L44.0966 20.4839L43.5915 20.436L43.551 20.9418L43.0761 26.8764L38.8547 22.6285L38.5 22.2717L38.1454 22.6285L33.9239 26.8764L33.449 20.9418L33.4085 20.436L32.9034 20.4839L26.9196 21.0512L30.4036 16.2114L30.7034 15.7949L30.2792 15.506L26.7124 13.0768L26.4309 12.8851L26.1495 13.0768L22.5827 15.506L22.1585 15.7949L22.4583 16.2114L25.9423 21.0512L19.9585 20.4839L19.4534 20.436L19.4129 20.9418L18.938 26.8764L14.7165 22.6285L14.3619 22.2717L14.0072 22.6285L9.78575 26.8764L9.31085 20.9418L9.27038 20.436L8.76525 20.4839L2.78148 21.0512L6.26544 16.2114L6.56526 15.7949L6.1411 15.506L1.1958 12.138L7.00938 10.6468L7.50426 10.5198L7.36667 10.0278L5.76391 4.29594L11.1958 6.85726L11.652 7.07235L11.8632 6.61434L14.3619 1.19427L16.8606 6.61434L17.0718 7.07235L17.5279 6.85726Z" stroke="white"/>
</svg>
